<?xml version="1.0" encoding="UTF-8"?>
<svg id="Layer_2" data-name="Layer 2" xmlns="http://www.w3.org/2000/svg" viewBox="0 0 538.49 621.79">
  <defs>
    <style>
      .cls-1 {
        fill: #fff;
      }
    </style>
  </defs>
  <g id="Layer_1-2" data-name="Layer 1">
    <g>
      <path class="cls-1" d="M272.91,312.33h-18.38v25.71h19.62c8.15,0,9.67-2.21,9.67-14.65,0-9.12-1.8-11.06-10.92-11.06Z"/>
      <path class="cls-1" d="M102.64,198.37c0-9.12-1.8-11.06-10.92-11.06h-18.38v25.71h19.62c8.15,0,9.67-2.21,9.67-14.65Z"/>
      <path class="cls-1" d="M101.67,312.47c-2.07-.83-2.76-.97-7.88-.97h-15.62v26.95h15.48c11.06,0,12.44-1.52,12.44-13.41,0-7.88-1.11-11.06-4.42-12.58Z"/>
      <path class="cls-1" d="M172.71,436.66c-10.78,0-14.1,1.11-16.31,5.53-1.52,3.04-1.93,7.6-1.93,21.28,0,22.8,1.11,24.32,17.97,24.32,10.09,0,13.27-1.38,15.34-6.63,1.38-3.59,1.8-7.74,1.8-19.9s-.28-15.62-1.66-18.93c-1.93-4.42-5.25-5.67-15.2-5.67Z"/>
      <polygon class="cls-1" points="165.52 349.64 188.47 349.64 176.86 309.56 165.52 349.64"/>
      <polygon class="cls-1" points="260.75 184.55 249.41 224.62 272.35 224.62 260.75 184.55"/>
      <path class="cls-1" d="M269.25,0L0,155.45v310.9l269.25,155.45,269.24-155.45V155.45L269.25,0ZM313.68,166.17h48.23c9.12,0,17.27,1.66,22.25,4.7,8.98,5.39,13.54,15.34,13.54,29.71l-.14,10.92c0,22.67-.83,27.78-5.94,35.52-5.67,8.15-14.79,11.33-31.09,11.33h-46.85v-92.18ZM316.44,312.33v-21.14h72.97v21.14h-24.88v71.03h-24.74v-71.03h-23.36ZM308.43,366.5v16.86h-25.15v-12.3c.28-8.57-3.04-12.44-10.37-12.16h-18.38v24.46h-24.74v-92.18h46.57c13.27,0,19.21,1.24,24.6,5.39,5.94,4.42,8.15,10.92,8.15,23.36,0,13.41-1.66,19.62-6.22,23.22-2.35,1.93-4.56,2.76-11.06,4.42v.97c11.33.55,16.86,6.63,16.58,17.97ZM241.67,166.17h37.45l28.05,92.18h-25.15l-4.84-15.89h-33.03l-4.42,15.89h-25.71l27.64-92.18ZM139.96,166.17h66.75v20.32h-42.01v16.58h39.25v17h-39.25v17.97h42.84v20.32h-67.58v-92.18ZM48.6,166.17h46.57c13.27,0,19.21,1.24,24.6,5.39,5.94,4.42,8.15,10.92,8.15,23.36,0,13.41-1.66,19.62-6.22,23.22-2.35,1.93-4.56,2.76-11.06,4.42v.97c11.33.55,16.86,6.63,16.58,17.97v16.86h-25.15v-12.3c.28-8.57-3.04-12.44-10.37-12.16h-18.38v24.46h-24.74v-92.18ZM110.93,359.18q-1.66.14-13.96.41l-4.01.14h-14.79v23.63h-24.74v-92.18h46.3c10.5,0,14.1.69,19.9,4.15,8.57,4.98,11.75,13.27,11.75,30.96,0,13.41-1.66,20.32-6.08,25.71-2.9,3.59-8.57,6.36-14.37,7.19ZM209.47,495.94c-6.08,9.67-16.58,13.13-39.11,13.13-14.37,0-21.56-1.24-27.5-4.97-7.19-4.42-11.06-10.23-12.85-19.21-.69-3.87-.97-8.57-.97-17.69,0-16.72.69-25.71,2.49-31.92,2.07-7.74,8.43-13.96,17.69-17.27,4.98-1.66,12.44-2.49,24.18-2.49,12.58,0,18.93.83,24.32,3.18,8.84,3.87,13.96,10.37,15.89,20.18.97,4.28,1.24,11.06,1.24,23.91,0,19.9-.97,26.26-5.39,33.17ZM198.14,383.36l-4.84-15.89h-33.03l-4.42,15.89h-25.71l27.64-92.18h37.45l28.05,92.18h-25.15ZM318.93,508.38h-41.87l-14.51-38.83c-1.94-5.39-4.01-10.78-5.94-16.03l-5.53-16.17h-1.11l.41,8.57c.55,12.58.69,14.65.69,25.57v36.9h-24.18v-92.18h41.6l14.65,38.83c1.94,5.25,3.87,10.36,5.94,15.62,1.8,5.25,3.59,10.5,5.39,15.62h.97l-.28-8.29c-.55-12.16-.69-13.96-.69-24.88v-36.9h24.46v92.18ZM401.44,508.38h-67.58v-92.18h66.75v20.32h-42.01v16.58h39.25v17h-39.25v17.97h42.84v20.32ZM451.47,351.3v32.06h-24.74v-32.06l-32.62-60.12h28.19l8.29,17.69,4.15,8.98c1.38,2.9,2.63,5.8,4.01,8.84h.83c1.38-2.9,2.9-6.22,4.15-8.84l4.28-8.98,8.57-17.69h28.47l-33.58,60.12ZM456.3,226.28v32.06h-24.74v-32.06l-32.61-60.12h28.19l8.29,17.69,4.15,8.98c1.38,2.9,2.63,5.8,4.01,8.84h.83c1.38-2.9,2.9-6.22,4.15-8.84l4.28-8.98,8.57-17.69h28.47l-33.58,60.12Z"/>
      <path class="cls-1" d="M369.92,231.81c1.94-3.18,2.49-8.29,2.49-20.87,0-10.92-.69-16.17-2.49-18.93-1.93-3.18-5.11-4.42-11.47-4.42h-20.04v49.61h20.04c6.36,0,9.12-1.38,11.47-5.39Z"/>
    </g>
  </g>
</svg>